<svg fill="none" height="180" viewBox="0 0 180 180" width="180" xmlns="http://www.w3.org/2000/svg"><path d="m0 0h180v180h-180z" fill="#fff"/><path clip-rule="evenodd" d="m90.1274 118c15.4946 0 28.0556-12.536 28.0556-28s-12.561-28-28.0556-28c-15.4948 0-28.0558 12.536-28.0558 28s12.561 28 28.0558 28zm0 8c19.9216 0 36.0716-16.118 36.0716-36 0-19.8823-16.15-36-36.0716-36-19.9219 0-36.0717 16.1177-36.0717 36 0 19.882 16.1498 36 36.0717 36z" fill="#ff5f00" fill-rule="evenodd"/><path d="m90.1275 26c33.4765 0 60.9615 25.6001 63.8725 58.2544l-9.765 9.7456h-43.837c-1.6033 4.0974-5.5973 7-10.2705 7-6.0873 0-11.022-4.9249-11.022-11s4.9347-11 11.022-11c4.6732 0 8.6672 2.9026 10.2705 7h45.7c-2.055-29.0611-26.329-52-55.9705-52-30.9896 0-56.1116 25.0721-56.1116 56 0 30.928 25.122 56 56.1116 56 20.0275 0 37.6125-10.466 47.5525-26.256 1.548-2.459 2.91-5.047 4.066-7.744h8.62c-1.551 4.227-3.535 8.245-5.899 12-11.344 18.021-31.44 30-54.3395 30-35.4167 0-64.1275-28.654-64.1275-64 0-35.3462 28.7108-64 64.1275-64z" fill="#000"/></svg>
